<svg xmlns="http://www.w3.org/2000/svg" width="122" height="26" viewBox="0 0 122 26" fill="none"><path fill-rule="evenodd" clip-rule="evenodd" d="M67.8036 0.4646H67.0942V25.7158H67.8036V1.72974L76.5483 17.3246L81.256 25.7158H85.8476H86.557V0.4646H85.8476V24.4507L80.495 14.9234L77.8252 10.1597L77.4253 9.43679L76.2775 7.38416L75.8647 6.66122L72.3952 0.477509H67.8036V0.4646Z" fill="black"></path><path fill-rule="evenodd" clip-rule="evenodd" d="M105.517 0.4646L107.438 4.93133L98.5002 25.7158H99.3128L107.851 5.88665L116.389 25.7158H122L111.14 0.4646H105.517Z" fill="black"></path><path fill-rule="evenodd" clip-rule="evenodd" d="M43.3366 0C36.475 0 30.916 5.82224 30.916 13C30.916 20.1778 36.475 26 43.3366 26C50.1982 26 55.7571 20.1778 55.7571 13C55.7442 5.82224 50.1982 0 43.3366 0ZM43.3366 25.6127C39.0803 25.6127 35.6366 19.9712 35.6366 13.0129C35.6366 6.05462 39.0803 0.400199 43.3366 0.400199C47.5928 0.400199 51.0365 6.04171 51.0365 13C51.0365 19.9583 47.5928 25.6127 43.3366 25.6127Z" fill="black"></path><path fill-rule="evenodd" clip-rule="evenodd" d="M16.4834 25.7158L14.5616 21.2491L23.4997 0.4646H22.6872L14.1489 20.3067L5.61053 0.4646H0L10.8728 25.7158H16.4834Z" fill="black"></path></svg>