<svg xmlns="http://www.w3.org/2000/svg" width="105" height="26" viewBox="0 0 105 26" fill="none"><path fill-rule="evenodd" clip-rule="evenodd" d="M13.6065 10.2523C17.39 10.2523 20.4837 13.7977 20.4837 18.1212C20.4837 18.9682 20.3655 19.8053 20.129 20.5932C19.2127 23.7152 16.6313 25.9803 13.5967 25.9803H0V25.2121C1.19217 25.2121 2.63067 25.222 2.63067 23.3508C2.63067 10.5182 2.63067 12.4485 2.63067 2.62955C2.63067 1.58561 2.17744 1.12273 1.57643 0.925757C1.16262 0.689394 0.581308 0.630303 0 0.610606V0H13.7839C18.7595 0 20.6512 7.39621 13.6065 10.2523ZM6.75894 5.01288V13.3348V21.9227C6.77864 24.6902 7.15304 25.222 9.45857 25.2121C9.61621 25.2121 9.764 25.2121 9.91179 25.2121C18.1585 25.2121 18.0895 8.71591 9.53739 12.0644L9.36004 11.4538C16.3062 9.05076 14.9564 0.77803 10.1483 0.77803C10.0891 0.77803 9.44872 0.77803 9.44872 0.77803C6.66041 0.768182 6.75894 1.81212 6.75894 5.01288Z" fill="black"></path><path fill-rule="evenodd" clip-rule="evenodd" d="M93.9059 15.3341L94.103 15.8265L96.8617 22.878C97.4135 24.2962 96.7927 25.1826 95.1868 25.1826V25.9606H105V25.1924H104.369C102.606 25.2023 102.172 24.5523 101.532 22.9273L97.7977 13.522C99.7485 11.9364 103.68 9.17879 102.941 4.875C102.419 1.89091 99.6894 0 96.8814 0H84.0532V0.77803C85.3636 0.77803 86.9499 0.768182 86.9499 2.63939V23.3606C86.9499 25.222 85.3636 25.222 84.0532 25.222V26H93.9749V25.2121C93.6103 25.2121 93.2458 25.1924 92.8812 25.1727C91.9157 25.0742 91.0782 24.7098 91.0782 23.3508V6.49015V3.73258C91.0979 2.37349 91.226 0.955303 92.8024 0.807576C95.7484 0.600758 97.8864 2.68864 98.6648 5.38712C100.024 10.0553 97.5612 13.128 93.9059 15.3341Z" fill="black"></path><path fill-rule="evenodd" clip-rule="evenodd" d="M53.0174 15.5803L53.2144 16.0727C56.8796 14.0242 62.8208 10.0159 61.9439 4.86515C61.5104 2.31439 59.5398 0.265909 56.7515 0H43.0662V0.77803C44.3766 0.77803 45.9628 0.768182 45.9628 2.63939V23.3606C45.9628 25.222 44.3766 25.222 43.0662 25.222V26H52.9878V25.2121C52.6233 25.2121 52.2587 25.1924 51.8942 25.1727C50.9286 25.0742 50.0911 24.7098 50.0911 23.3508V6.49015V3.73258C50.101 2.91515 50.101 1.89091 50.7315 1.29015C51.0567 0.975 51.5887 0.856818 52.1109 0.807576C55.2047 0.590909 57.185 2.53106 57.8649 5.10152C58.6925 8.21364 57.6087 11.7 55.2539 13.7977C54.5938 14.3886 53.8548 14.9008 53.0174 15.5803Z" fill="black"></path><path fill-rule="evenodd" clip-rule="evenodd" d="M76.8707 17.3826H76.1712V11.7689C74.4864 13.1773 72.575 14.3098 71.0478 15.1371L70.8507 14.6447C71.7178 13.9553 72.4863 13.453 73.176 12.8621C75.3239 11.0205 76.4569 8.09545 76.1121 5.29848H76.1811H76.8806V11.1682V17.3826H76.8707ZM70.23 4.66818C70.23 4.35303 70.23 4.03788 70.23 3.72273C70.2399 2.9053 70.2399 1.88106 70.8902 1.2803C71.4518 0.768182 72.5651 0.768182 73.3238 0.768182H75.1958C78.3881 0.817424 79.7182 1.36894 81.1369 6.26364L81.7084 5.82045L79.994 0H78.4078H73.3238H62.9292V0.77803C64.2889 0.77803 65.9343 0.768182 65.9343 2.63939C65.9343 14.5856 65.9343 8.65682 65.9343 23.3606C65.9343 25.222 64.2889 25.222 62.9292 25.222V26H72.7917H77.8757H80.6837L82.6247 20.1697L82.0532 19.7265C80.5556 25.3402 78.4964 25.1924 73.3632 25.222H72.8016C71.5503 25.2023 70.2399 25.0348 70.2399 23.3606V21.3614C70.23 4.43182 70.23 18.5447 70.23 4.66818Z" fill="black"></path><path fill-rule="evenodd" clip-rule="evenodd" d="M32.0804 14.2705C36.3466 12.0152 36.1003 9.4447 34.9574 5.91894L34.5534 4.67803C34.4155 4.2447 34.2874 3.86061 34.179 3.51591L33.0262 0H26.4939H25.686V0.77803C28.5827 0.77803 29.0261 0.837121 28.1984 3.73258L28.0999 4.06742L27.8536 4.8947L25.0259 14.5265L22.9469 21.578L22.6711 22.4447V22.4545C22.4346 23.1735 22.2376 23.7152 22.0011 24.1189C21.4888 24.9758 20.7695 25.2023 19.1044 25.222H18.8384V25.5667V25.7833V26H22.2474H24.8584H25.2722H25.3806V25.6652V25.2121H25.3214H25.2623H25.2229H25.1638C24.0307 25.2121 22.6809 25.1333 23.2031 23.3508L23.4691 22.4447H23.4593L25.2623 16.3288L28.5728 5.09167L28.8783 4.05758L29.2921 2.65909L29.7453 4.05758L31.0951 8.21364C31.2725 8.62727 31.4202 9.07045 31.5188 9.51364C32.0508 11.8576 31.3808 14.428 27.9225 15.6295L28.1393 16.122C31.6272 14.7333 33.7849 16.8409 34.8391 19.6773C34.9278 19.9136 35.0066 20.1598 35.0756 20.4159L36.0806 23.4985C36.5042 24.7985 35.982 25.1333 35.2234 25.2121C34.8194 25.2515 34.3366 25.222 33.9031 25.222V25.4386V26H34.0115H34.9869H38.4649H39.9034H44.1105V25.2121H44.0415H43.7952C42.3863 25.2318 41.2729 25.3008 40.6818 23.4985L39.6768 20.4455L39.5783 20.1598C38.2383 16.0432 35.8342 13.8273 31.2232 14.6545C31.5385 14.5364 31.8144 14.4083 32.0804 14.2705Z" fill="black"></path></svg>