<svg xmlns="http://www.w3.org/2000/svg" width="67" height="26" viewBox="0 0 67 26" fill="none"><path d="M16.141 14.1411C14.9529 15.5627 12.9128 15.7123 11.5087 14.5027C10.8367 13.8418 10.3806 13.0812 10.3806 12.2457C10.3806 11.7718 9.25255 12.0337 7.82447 14.2907V21.5483C7.82447 23.556 8.00448 25.015 9.26456 25.3766V25.6634H0.49203V25.3766C1.82411 24.9776 1.86011 23.4063 1.86011 21.5483V12.6572C1.86011 11.3728 1.44009 10.8615 0 10.3128V10.026L7.82447 8.49219V13.5924C10.3206 9.68931 11.3647 9.25286 12.4207 8.74159C13.4048 8.26773 14.8809 8.49219 15.7929 9.32768C17.149 10.5747 17.329 12.7569 16.141 14.1411Z" fill="black"></path><path d="M35.5702 17.2461C35.5702 22.0222 32.7981 26.0001 26.5217 26.0001C20.2453 26.0001 17.4731 22.0222 17.4731 17.2461C17.4731 12.4327 20.2453 8.49219 26.5217 8.49219C32.7981 8.49219 35.5702 12.4327 35.5702 17.2461ZM28.4418 17.2461C28.4418 10.6495 28.4058 8.82888 26.5097 8.82888C24.5776 8.82888 24.5416 10.6495 24.5416 17.2461C24.5416 23.8428 24.5776 25.6634 26.5097 25.6634C28.4178 25.6634 28.4418 23.8428 28.4418 17.2461Z" fill="black"></path><path d="M48.4709 24.0173C48.4709 24.0173 47.1388 25.9876 43.0706 25.9876C38.8223 25.9876 36.8302 24.7531 36.8302 24.7531V19.9771H37.1422C37.8383 23.3689 40.7544 25.6634 43.0706 25.6634C45.5667 25.6634 46.1188 22.6332 43.4546 20.8126L39.9144 18.5929C36.6142 16.3358 35.7381 12.7195 37.8743 10.2504C37.8743 10.2504 39.1704 8.50464 43.1666 8.50464C47.1988 8.50464 48.8789 9.52718 48.8789 9.52718V13.2432H48.5669C47.9309 9.96363 45.1947 8.82886 43.1666 8.82886C40.8865 8.82886 39.7944 11.1982 42.8546 13.2058L46.3948 15.5003C49.599 17.4955 50.403 21.6106 48.4709 24.0173Z" fill="black"></path><path d="M66.9641 16.8719H57.4236C57.4236 22.4086 59.1037 23.8676 61.4558 24.4163C63.2079 24.8153 65.56 23.718 66.2561 20.6254L66.5681 20.7002C66.1121 23.3938 63.5559 25.9875 59.1637 25.9875C54.5674 25.9875 50.8472 22.1966 50.8472 17.271C50.8472 11.0734 55.3714 8.49209 59.6917 8.49209C63.4119 8.49209 66.9641 10.0259 66.9641 16.8719ZM61.3118 0L67.0001 1.82062L56.3315 5.93573H53.4513L61.3118 0ZM61.8758 16.5477C61.8758 11.9588 61.4198 8.81631 59.8357 8.81631C58.2276 8.81631 57.4116 13.0436 57.4116 16.5477H61.8758Z" fill="black"></path></svg>