<svg xmlns="http://www.w3.org/2000/svg" width="87" height="34" viewBox="0 0 87 34" fill="none"><path fill-rule="evenodd" clip-rule="evenodd" d="M60.095 5.50421V7.38482V27.7045H61.3268V28.0944H55.8699V27.7045H57.1017V7.37335H55.8699V7.13254C57.3895 6.88027 58.7019 6.29544 59.5884 5.49275H60.095V5.50421ZM58.6098 0C59.692 0 60.5555 0.8715 60.5555 1.93794C60.5555 3.01585 59.6805 3.87588 58.6098 3.87588C57.5277 3.87588 56.6642 3.00438 56.6642 1.93794C56.6527 0.8715 57.5277 0 58.6098 0Z" fill="black"></path><path fill-rule="evenodd" clip-rule="evenodd" d="M44.0471 5.50439V7.38499V7.56847C45.8315 4.35768 53.0614 4.88516 53.0614 9.15093V27.7047H54.2932V28.0946C52.4742 28.0946 50.6553 28.0946 48.8363 28.0946V27.7047H50.0681V9.15093C50.0681 5.50439 44.0471 5.50439 44.0471 9.15093V17.0518V27.6933H45.2789V28.0831H39.822V27.6933H41.0539V7.37353H39.822V7.13272C41.3417 6.88044 42.6541 6.29562 43.5406 5.49292H44.0471V5.50439Z" fill="black"></path><path fill-rule="evenodd" clip-rule="evenodd" d="M76.7654 5.50421V7.56829C78.5383 4.3575 85.7682 4.88499 85.7682 9.15076V27.7045H87V28.0944C85.181 28.0944 83.3621 28.0944 81.5431 28.0944V27.7045H82.7749V9.15076C82.7749 5.50421 76.7539 5.50421 76.7539 9.15076V27.7045H77.9857V28.0944H72.5288V27.7045H73.7606V1.88061H72.5288V1.6398C74.06 1.38752 75.3724 0.802698 76.2589 0H76.7654V5.50421Z" fill="black"></path><path fill-rule="evenodd" clip-rule="evenodd" d="M31.3945 5.50415C25.1663 5.50415 20.1123 10.7332 20.1123 17.0057C20.1123 23.2782 25.1663 28.5072 31.3945 28.5072C34.549 28.5072 37.4041 27.1655 39.4533 25.0326L38.0257 23.6107C36.5176 26.3055 34.1115 28.0829 31.3945 28.0829C26.8241 28.0829 23.1056 23.0488 23.1056 17.0057C23.1056 15.6296 23.3013 14.2994 23.6581 13.061H39.177C39.1655 11.3409 38.256 5.50415 31.3945 5.50415ZM23.7733 12.6711C25.0396 8.73788 27.9753 5.92843 31.383 5.92843C33.9388 5.92843 36.437 8.80668 36.437 12.6711H23.7733Z" fill="black"></path><path fill-rule="evenodd" clip-rule="evenodd" d="M71.1815 25.7322C71.1815 27.5899 69.5352 28.5416 67.8544 28.5072C66.2311 28.4728 64.6194 27.5211 64.6194 25.5831V6.30691H62.0291V5.91703C62.8925 5.91703 63.7559 5.91703 64.6194 5.91703V1.88061H63.3875V1.6398C64.9072 1.38752 66.2196 0.802698 67.1061 0H67.6126V5.91703H71.239V6.30691C70.0302 6.30691 68.8214 6.30691 67.6126 6.30691V25.9501C67.6126 26.8445 68.3494 27.5899 69.2589 27.5899C70.3526 27.5899 70.9052 26.7298 70.9052 25.7322H71.1815Z" fill="black"></path><path fill-rule="evenodd" clip-rule="evenodd" d="M13.861 24.9522H5.57204H4.58197C4.13298 24.9522 3.74156 24.7114 3.54584 24.2986C3.35013 23.8973 3.4077 23.4386 3.68399 23.0946L4.50138 22.0855C5.89439 22.8996 7.54068 23.3812 9.29057 23.3812C14.4251 23.3812 18.5811 19.3219 18.5811 14.4484C18.5811 12.0173 17.545 9.78124 15.8642 8.15291L19.41 3.79541H16.7622C16.7392 4.98799 16.624 6.38698 15.5188 7.8433C13.8725 6.38698 11.6852 5.50401 9.29057 5.50401C4.15601 5.50401 0 9.56337 0 14.4369C0 17.4871 1.63477 20.2278 4.10996 21.8446L2.95871 23.2551L1.35847 25.2274C0.920999 25.7664 0.828899 26.4659 1.13974 27.0966C1.43906 27.7273 2.03771 28.1057 2.73997 28.1057H4.28264H13.0667H14.3906C15.9563 28.1057 15.68 30.0092 14.6093 30.9954C12.9976 32.4747 9.4978 33.1971 7.09169 29.8602L5.10003 32.3715C6.4585 33.6787 8.17386 33.9998 9.32511 33.9998C11.2822 33.9998 13.3545 32.9219 14.8281 31.4082C16.624 29.562 17.5681 27.1195 17.0039 25.9499C16.7046 25.3192 16.106 24.9408 15.4037 24.9408H13.861V24.9522ZM14.5288 9.76978L5.34179 21.0419C6.42397 22.2231 7.79395 22.934 9.27906 22.934C12.7558 22.934 15.5649 19.0696 15.5649 14.4254C15.5764 12.7168 15.1965 11.1114 14.5288 9.76978ZM5.04247 20.6865L14.2985 9.32256C13.1473 7.26995 11.3283 5.91683 9.27906 5.91683C5.80229 5.91683 2.99325 9.78124 2.99325 14.4254C3.00476 16.8909 3.78761 19.1269 5.04247 20.6865Z" fill="black"></path></svg>