<svg xmlns="http://www.w3.org/2000/svg" width="95" height="26" viewBox="0 0 95 26" fill="none"><path d="M29.3385 20.9363H40.2549L39.7878 25.7944H23.7771L26.2319 0H42.0689L41.6127 4.86891H30.8809L30.3487 10.3546H40.1572L39.701 15.1477H29.8925L29.3385 20.9363Z" fill="black"></path><path d="M66.4329 0H71.5381L69.0832 25.7944H63.978L66.4329 0Z" fill="black"></path><path d="M89.895 0H95.0002L92.5345 25.7944H88.6567L79.0655 10.0191L77.5556 25.7944H72.4504L74.9161 0H78.7939L88.396 15.7212L89.895 0Z" fill="black"></path><path d="M6.23485 25.7944L0 0H3.06311H5.55054H18.1614H19.1608H23.7446L12.5566 25.7944H6.23485ZM6.69106 5.08531L9.99314 19.8327L16.0759 5.08531H6.69106Z" fill="black"></path><path fill-rule="evenodd" clip-rule="evenodd" d="M53.6806 12.5726L49.7485 4.7499H54.2997C55.3859 4.7499 56.2549 5.11777 56.8957 5.85352C57.5366 6.58926 57.8082 7.51977 57.6995 8.65585C57.5909 9.75947 57.1456 10.69 56.3635 11.4365C55.6031 12.1615 54.7125 12.5402 53.6806 12.5726ZM52.0187 18.372L56.1463 26H61.2514L57.1238 18.372L56.2766 16.814C57.4932 16.4028 58.6011 15.732 59.633 14.8123C61.4904 13.1461 62.544 11.0903 62.7721 8.65585C63.0002 6.22139 62.3485 4.17645 60.8061 2.49938C59.2637 0.833125 57.2433 0 54.7559 0H45.0995L44.6433 4.7499L48.5754 12.5618H43.8938L42.6338 25.7944H47.739L48.5536 17.3225H51.4538L52.0187 18.372Z" fill="black"></path></svg>