<svg xmlns="http://www.w3.org/2000/svg" width="100" height="26" viewBox="0 0 100 26" fill="none"><path fill-rule="evenodd" clip-rule="evenodd" d="M31.7608 0.0444336C36.2219 0.0444336 39.846 3.76733 39.846 13.0222C39.846 22.2771 36.2314 26 31.7608 26C27.2996 26 23.6755 22.2771 23.6755 13.0222C23.6755 3.76733 27.2996 0.0444336 31.7608 0.0444336ZM36.3456 8.43286C31.3422 -6.56348 22.3248 2.2915 27.3757 17.4021C32.8071 33.7029 40.9399 22.2009 36.3456 8.43286Z" fill="black"></path><path fill-rule="evenodd" clip-rule="evenodd" d="M84.0102 22.5437C84.2194 22.2105 84.4192 21.8391 84.5999 21.4487C84.676 21.2869 84.7521 21.1155 84.8187 20.9441L84.7046 20.4204L83.9436 16.8499L83.506 14.8027H83.1636L83.4014 15.8882C83.6582 17.4592 83.7629 19.0493 83.506 20.5537C83.2873 21.8677 82.7831 23.1055 81.87 24.2004C81.8605 24.21 81.8605 24.2195 81.8509 24.2195C79.7107 26.7522 76.334 25.5335 73.623 17.4021C73.5565 17.2117 73.4994 17.0117 73.4328 16.8213C72.805 14.8123 72.4245 12.9175 72.2438 11.1846H76.6954H77.0379H77.3327H77.6276C78.8071 11.1941 79.4825 12.0796 79.882 13.2507L80.7666 17.2498H81.0995L80.2149 13.2507L79.2351 8.78516H78.9022C79.0449 9.9563 78.7215 10.8418 77.5515 10.8513H77.1996H76.8476H76.5052H72.2153C72.0821 9.36597 72.1106 7.99488 72.2628 6.78565C72.6623 3.51026 73.975 1.32983 75.6301 0.806153C75.7252 0.777588 75.8203 0.749024 75.9154 0.729981C77.5991 0.349121 78.9022 1.39648 79.8249 2.82471C80.6144 4.04346 81.128 5.53833 81.3849 6.66187H81.6988L81.461 5.5669L80.3385 0.425293C79.6061 0.168213 78.8261 0.0444336 78.0176 0.0444336C73.5565 0.0444336 69.9324 3.76733 69.9324 13.0222C69.9324 22.2771 73.5469 26 78.0176 26C80.3956 25.9905 82.5358 24.9336 84.0102 22.5437Z" fill="black"></path><path fill-rule="evenodd" clip-rule="evenodd" d="M2.2924 22.9436C1.83582 20.8203 1.83582 18.916 2.2924 16.8023V16.7927L2.47313 15.9644V15.9739L2.64434 15.1931L2.91068 13.9934L4.96528 4.70996L5.58356 7.58545L7.07695 14.5266L7.76182 17.6973L8.44669 20.8679L8.79863 22.4961L9.51203 25.781H9.81642H10.3586H12.0898C12.2991 25.781 12.5083 25.781 12.7176 25.781H14.1729V25.4954C13.3073 25.3335 12.6034 24.7813 12.2895 23.6958L12.1659 23.134L11.9852 22.3152C11.6618 20.449 11.6998 18.7161 12.1088 16.8213V16.8118L12.2895 15.9834V15.9929L12.4608 15.2122L12.7271 14.0125L14.7817 4.72901L15.4 7.6045L16.8934 14.5457L17.5782 17.7163L18.2631 20.887L18.615 22.5151L19.3284 25.8001H23.9893V25.5144C23.1238 25.3525 22.4199 24.8003 22.106 23.7149L21.9823 23.1531L21.6018 21.3916L19.728 12.6985L17.7019 3.31983L17.0551 0.272949H12.3942V0.558594C13.2598 0.720459 13.9637 1.27271 14.2776 2.35816L14.4012 2.91992L14.4773 3.27222L14.6105 3.90064L13.0695 10.8608L12.2895 14.3933L12.1183 15.1741L11.2718 19.0017L9.90203 12.6509L7.88548 3.28174L7.23866 0.272949H2.57776V0.558594C3.44336 0.720459 4.14725 1.27271 4.46114 2.35816L4.5848 2.91992L4.6609 3.27222L4.79406 3.90064L3.25312 10.8608L2.47313 14.3933L2.30191 15.1741L1.2651 19.8491L0 25.762H0.542186H2.27338C2.48264 25.762 2.69191 25.762 2.90117 25.762L2.2924 22.9436Z" fill="black"></path><path fill-rule="evenodd" clip-rule="evenodd" d="M52.0403 12.4795V7.52832V5.27173V2.40576C52.0308 1.2251 51.1462 0.691895 49.9762 0.568115V0.272949H54.4279V0.558594C53.2579 0.691895 52.3733 1.2251 52.3638 2.39624V7.52832V13.0317L52.3923 13.0794V13.3364V18.4019V18.6589L52.3638 18.6113V23.6196C52.3733 24.8003 53.2579 25.3335 54.4279 25.4573V25.7429H49.9762V25.4573C51.1462 25.324 52.0308 24.7908 52.0403 23.6196V18.4876V18.0686L42.9468 2.71045V7.53784V16.5833V17.2307V18.5161V23.6482C42.9564 24.8289 43.841 25.3621 45.011 25.4858V25.7715H40.5593V25.4858C41.7293 25.3525 42.6139 24.8193 42.6234 23.6482V18.5161V17.8782V17.2402V16.5928V15.6882V14.1838V7.53784V5.27173V2.40576C42.6234 2.10107 42.5568 1.83447 42.4427 1.60596L42.3381 1.42505C41.9861 0.910889 41.3298 0.644287 40.5498 0.558594V0.272949H45.0014L52.0403 12.4795Z" fill="black"></path><path fill-rule="evenodd" clip-rule="evenodd" d="M59.8687 6.14769C61.8282 8.54711 64.1586 11.594 66.451 14.3743C66.6603 14.6218 66.8505 14.8884 67.0217 15.1645C68.2583 17.1355 68.5722 19.9443 67.8683 21.9914C67.1074 24.2004 65.1479 25.9238 61.8757 25.9905C59.6785 25.9429 57.7 24.9717 56.2732 22.8674C56.1971 22.7627 56.1305 22.6484 56.0639 22.5437C55.8546 22.2104 55.6549 21.8391 55.4741 21.4487C55.3981 21.2869 55.322 21.1155 55.2554 20.9441L55.3695 20.4204L56.1305 16.8498L56.568 14.8027H56.9105C55.0366 28.0471 65.4332 27.3997 65.9564 22.001C66.023 21.2869 65.9374 20.4775 65.6425 19.592C65.3001 18.5828 64.6913 17.4878 63.7401 16.3166C61.9043 14.0791 59.9828 11.4988 58.0329 9.14696C55.5598 6.15722 56.14 3.04369 58.1375 1.34886C59.9353 -0.174574 63.5213 -0.298354 65.6425 0.434801L66.7649 5.58593L67.0027 6.6809H66.6793C66.432 5.55736 65.9088 4.06249 65.1193 2.84374C61.6475 -2.5359 56.7678 2.36766 59.8687 6.14769Z" fill="black"></path><path fill-rule="evenodd" clip-rule="evenodd" d="M93.5033 17.345H93.0658H92.7234H92.3714H91.7912C91.0112 17.3545 90.6117 17.7449 90.469 18.3447C90.2312 19.354 91.0778 22.2866 91.3251 23.4197H90.9922L90.1076 19.4207L89.1278 14.9551H89.4607C89.8698 16.1262 90.5451 17.0117 91.7151 17.0212H92.2382H92.5331H92.8756H93.4368L92.8946 14.4981L91.4012 7.55689L90.7829 4.6814L88.7283 13.9648L88.462 15.1646L88.2908 15.9453V15.9358L88.11 16.7642V16.7737C87.6534 18.8875 87.6534 20.7918 88.11 22.915L88.7188 25.7429C88.5095 25.7429 88.3003 25.7429 88.091 25.7429H86.3598H85.8176L87.0922 19.8301L88.129 15.155L88.3003 14.3743L89.0803 10.8418L90.6212 3.88159L90.488 3.25317L90.4119 2.90088L90.2883 2.33911C89.9744 1.24414 89.261 0.701416 88.4049 0.539551V0.272949H93.0658L93.7126 3.28174L95.7387 12.6604L97.6125 21.3535L97.993 23.115L98.1167 23.6768C98.4306 24.7717 99.144 25.3145 100 25.4763V25.762H95.3392L94.6258 22.4771L94.2738 20.8489L93.589 17.6782L93.5033 17.345Z" fill="black"></path></svg>